<?xml version="1.0" encoding="utf-8"?>
<!-- Generator: Adobe Illustrator 19.2.0, SVG Export Plug-In . SVG Version: 6.00 Build 0)  -->
<svg version="1.1" id="Layer_1" xmlns="http://www.w3.org/2000/svg" xmlns:xlink="http://www.w3.org/1999/xlink" x="0px" y="0px"
	 viewBox="0 0 554.614 71.133" enable-background="new 0 0 554.614 71.133" xml:space="preserve">
<g>
	<g>
		<path fill="#F7F7F7" d="M257.557,58.007h-31.421v-48.1h31.421c5.756,0,10.332,4.655,10.332,10.329v27.439
			C267.889,53.348,263.313,58.007,257.557,58.007z M255.184,23.031c0-0.676-0.508-1.355-1.441-1.355h-14.902v24.558h14.902
			c0.933,0,1.441-0.676,1.441-1.355V23.031z"/>
		<path fill="#F7F7F7" d="M278.865,58.007v-48.1h35.312v10.922H291.57v7.537h16.933v10.249H291.57v7.619h23.203v11.773H278.865z"/>
		<path fill="#F7F7F7" d="M359.201,9.906h12.953v38.615c0,5.674-4.652,10.332-10.326,10.332h-15.587
			c-5.674,0-10.332-4.658-10.332-10.332v-6.435h12.534v3.64c0,0.679,0.596,1.355,1.441,1.355h7.876c0.933,0,1.441-0.676,1.441-1.355
			V9.906z"/>
		<path fill="#F7F7F7" d="M423.366,9.906v38.615c0,5.674-4.57,10.332-10.332,10.332h-19.985c-5.674,0-10.332-4.658-10.332-10.332
			V9.906h12.623v35.82c0,0.679,0.59,1.355,1.435,1.355h12.452c0.933,0,1.441-0.676,1.441-1.355V9.906H423.366z"/>
		<path fill="#F7F7F7" d="M461.365,47.335h-14.565l-3.725,10.672h-13.384l18.297-48.1h12.192l18.291,48.1H465.09L461.365,47.335z
			 M450.188,37.089h7.787l-3.897-11.433L450.188,37.089z"/>
		<path fill="#F7F7F7" d="M514.601,45.39l-16.767-16.77v29.387h-12.617v-48.1h10.415l18.97,18.97V9.906h12.706v48.1h-12.706V45.39z"
			/>
	</g>
	<g>
		<path fill="#F7F7F7" d="M65.139,48.754c0,5.188-4.254,9.438-9.438,9.438H27.307V9.906H54.34c5.184,0,9.438,4.251,9.438,9.434
			v6.291c0,4.761-3.574,7.398-6.295,7.908c3.317,0.253,7.655,3.06,7.655,8.161V48.754z M39.975,20.701v8.078h9.687
			c0.937,0,1.447-0.68,1.447-1.36v-5.358c0-0.68-0.51-1.36-1.447-1.36H39.975z M39.975,38.383v8.161H50.94
			c0.937,0,1.443-0.68,1.443-1.36v-5.441c0-0.68-0.506-1.36-1.443-1.36H39.975z"/>
		<path fill="#F7F7F7" d="M160.2,9.906h12.669v19.552l17.002-19.552h14.788L183.834,33.88l21.166,24.313h-15.895L172.869,39.49
			v18.702H160.2V9.906z"/>
		<path fill="#F7F7F7" d="M139.611,7.924c-10.706,0-21.46,2.613-27.926,4.536c-6.466-1.922-17.219-4.536-27.926-4.536
			c-3.223,0-6.437,0.237-9.531,0.801v51.167c0,0,4.637-0.754,11.541-0.754c5.556,0,12.583,0.505,19.841,2.267
			c2.017,0.49,4.047,1.101,6.073,1.804c2.027-0.703,4.056-1.314,6.073-1.804c7.259-1.761,14.286-2.267,19.841-2.267
			c6.905,0,11.541,0.754,11.541,0.754V8.725C146.048,8.161,142.834,7.924,139.611,7.924z M136.995,48.027
			c-5.35,0.032-12.095,0.502-19.236,2.059V22.694c6.176-1.993,13.768-3.472,19.236-3.082V48.027z M86.375,19.612
			c5.468-0.39,13.06,1.089,19.236,3.082v27.392c-7.142-1.557-13.886-2.027-19.236-2.059V19.612z"/>
	</g>
</g>
</svg>
